<?xml version="1.0" encoding="utf-8"?>
<svg viewBox="0 0 500 500" xmlns="http://www.w3.org/2000/svg">
  <g transform="matrix(4.850575, 0, 0, 4.860153, 2.650143, 12.213071)" style="" fill="#fff">
    <g fill="#fff">
      <path fill="#fff" fill-rule="evenodd" clip-rule="evenodd" d="M50,3.9c-24.8,0-45,20.2-45,45c0,24.8,20.2,45,45,45s45-20.2,45-45    C95,24.1,74.8,3.9,50,3.9z M66.1,66.4l-0.5,1.2l0.4,1.1l0.1,2.5l-0.3,1.4l-0.5,0.5l0.2,0.8l0.3,0.5l0.1,1l-0.4,0.6l1.1,2.6    l-0.1,0.9l-0.8,1.1l-0.9,0.6l-0.6,1.3l0.3,0.4l0.5,0.1l0.1,0.5l-0.6-0.1l-0.4,0.7l-0.3,0.7l0.7,0.7l-0.3,0.7l-0.8,0.5l-0.5-0.1    L62.2,87l-1,0.5l-0.1-0.1l-0.7-0.2l-1-0.9l-1.1-1.1l-0.9-0.4l-0.9-0.2l0-0.6l0.1-0.4l-0.3-0.5l-0.5-0.2l-0.9-0.8l-0.6-0.4    l-1.1-0.8L53,80.4l-0.4-0.2l-0.7,0l-1-0.4l-1.5-0.9l-0.7-0.2l-0.3,0.1l-1-0.3L46.8,78l-0.1-0.6l-0.6-0.5l-1.3-0.7l-0.7-0.8    l0.2-0.7l-0.4,0.5l-1.2,0.1L42.4,75l-0.3-0.7L41.8,74L41,73.9l-0.6-0.7l-0.1-0.5L39.1,72l-1.3-0.9l0.2-0.4l-0.1-0.5l-0.5-0.3    l-0.5,0.1v-0.6l-0.1-0.7l0-0.4l0.4,0.3l0.3-0.1l0-0.7l-1.3-1.8l-0.3-0.9l-1.1-1.8l-0.2-0.9l-1-0.4l-0.4-0.5L33,60.2l-0.3-0.7    l-1.3-1.2l-0.5-0.2l-0.1-0.5l0.2-0.7l-0.5-0.8l-1.2-1.6l-0.6-1.4l0.2-0.3l-0.1-0.9l-0.7-1.3l-0.6-0.4l-0.5-0.9l-0.1-1.3l-0.5-0.8    l-0.2-1.1L25.2,45l-1.6-0.8l-0.5-0.8l-0.1-1.1l-0.9-1.2L22,40.4l-0.8-0.2l-1.6-1.1L18.5,39l-1.2-1l-0.8-0.3l-0.7-0.6l0.2-0.6    l0.6-0.3l0.6,0l0.1-0.8l-0.6-1.1l-0.8-0.7v-0.4l0.5-0.3l-0.1-0.6l-0.6-0.5l-0.1-0.4l0.3-0.8l0.3-1l1.4-1.3l0.7-0.7l1.9-0.9l0.1,0    l0.4,0.2l0.3,1.1l-0.8,0.4l-0.7,0.7l0.1,0.8l0.8,0l0.9-0.4l0.4,0.6l1.2,0.3l0.7,0.3l1.1,1.6h0.5l0.7-0.8l3.1-6.4l0.6-0.5l4-1.3    l1.7-1.2l2.7-2.5l1.1-2.6l0.7,0l0.2-0.4l0.2-0.9l-0.1-0.7l-0.8-1.5l0-0.4l-0.2-0.6l0.3,0L40,13l1.4,0.3l0.9,0.2l0.2,0.4l0.9,1.1    l0.1,0.7l0.7,1.2h0.5l1.9,0.6l0.8,1.2l0,0.9l0.3,0.1l0.7,0.3l0.3,1l-0.3,0.4l0.2,0.6l0.7,0.3l0.8-0.2l0.7,0.2l1,0l0.4-0.3l1.2-0.6    l1.1,0.2l0.9,0.5l1.4-0.6h0.7l0.3,0.5l0.5,0l0.9,0.4l0.4,0.5l0.8-0.3l0.1,0.5l-2.6,4.3l0.1,0.5l0.9-0.1l1-0.1l0.6,0.7l0.3,1.2    l-0.3,0.6L59.6,30l0.1-0.3l-0.9-0.6l-0.3,0.1h-0.8l-0.3-0.1l-0.3,0.6l-2.7,0.9l-2,0.4l-0.5,0.5l-0.5,0.1l-0.8,0.8L49.6,33    l-0.7,0.5l0.1,1L48.6,35l0.2,0.6l-1.1,1.1l0.4,1.4l0.4,0.7l-0.7,0.6l-0.6-0.1L46.1,40l-0.1,0.8l-0.4,0.4l0.3,0.5l-0.1,0.9    l-0.3,0.7l0.3,0.7l-0.2,0.6l1.1,1.1l1.9,3.1l-1,1.2l2.4-0.2l1.2,0.2l0.9,1.2l0.3,1.1l1.7,0.1l2,0.1l1.7-1.5l1.4-0.8l0.4,0.4    l-0.2,0.9L59,51.9l0,1.4l0.2,2.3l0,0.9l0.5,0.5l0.8-0.1l0.8-0.2l0.9-0.1l0.4-0.1l0.4,0.2l0.1,0.1l3.6,5.2l0,0.6L66,63.7L66.1,66.4    z"/>
    </g>
  </g>
  <g fill="#FFF" display="none" transform="matrix(1, 0, 0, 1, 91.730606, 77.26767)">
    <polygon display="inline" fill-rule="evenodd" clip-rule="evenodd" points="67.4,58.2 67.3,58.1 66.8,57.9 66.3,58 65.3,58    64.4,58.3 63.4,58.4 62.8,57.9 62.8,56.8 62.5,54 62.6,52.3 62.9,52 63.1,50.9 62.6,50.4 61,51.4 59,53.2 56.6,53 54.5,53    54.2,51.6 53.2,50.1 51.8,49.9 48.9,50.1 50.1,48.6 47.7,44.9 46.4,43.6 46.7,42.9 46.3,42.1 46.7,41.2 46.9,40.2 46.6,39.5    47.1,39 47.1,38 48.5,37.2 49.1,37.3 49.9,36.6 49.5,35.7 49,34.1 50.3,32.8 50.1,32.1 50.6,31.3 50.5,30.1 51.3,29.6 52.4,29.1    53.4,28.1 54,27.9 54.6,27.3 57,26.8 60.2,25.7 60.6,25 61,25.1 61.9,25.1 62.3,25 63.3,25.7 63.2,26 64.3,26.3 64.7,25.6    64.3,24.1 63.6,23.3 62.4,23.4 61.4,23.5 61.2,23 64.3,17.8 64.2,17.1 63.3,17.4 62.8,16.8 61.7,16.3 61.2,16.3 60.8,15.8 60,15.8    58.3,16.5 57.2,15.9 55.9,15.7 54.4,16.4 53.9,16.8 52.8,16.8 52,16.6 51,16.9 50.1,16.5 49.8,15.8 50.1,15.3 49.7,14.1 48.9,13.8    48.6,13.7 48.6,12.5 47.7,11.1 45.4,10.4 44.8,10.4 44,8.9 43.9,8 42.8,6.7 42.5,6.2 41.5,6 39.8,5.5 39.2,5 38.9,5 39.1,5.7    39.1,6.2 40,8.1 40.1,9 39.9,10.1 39.7,10.5 38.9,10.5 37.6,13.6 34.3,16.6 32.2,18 27.4,19.6 26.7,20.3 23,27.9 22.2,28.8    21.5,28.8 20.2,26.9 19.3,26.5 17.9,26.2 17.5,25.5 16.4,26 15.4,26 15.3,25 16.1,24.1 17.1,23.6 16.7,22.3 16.2,22.1 16.2,22.2    13.9,23.2 13,24 11.4,25.6 11,26.8 10.7,27.7 10.8,28.1 11.5,28.7 11.6,29.4 11,29.8 11,30.3 12,31.2 12.7,32.5 12.6,33.4    11.9,33.4 11.1,33.8 10.8,34.5 11.6,35.3 12.6,35.6 14,36.8 15.3,37 17.2,38.3 18.2,38.5 18.4,39.3 19.4,40.8 19.6,42.1 20.1,43.1    22,44 22.9,45.4 23.2,46.8 23.7,47.7 23.9,49.3 24.5,50.3 25.3,50.8 26.1,52.3 26.3,53.4 26,53.8 26.8,55.4 28.3,57.3 28.9,58.3    28.6,59.1 28.8,59.7 29.4,59.9 31,61.3 31.4,62.2 31.6,63.5 32,64.1 33.2,64.6 33.5,65.7 34.8,67.9 35.2,68.9 36.8,71.2 36.8,72    36.4,72.2 35.9,71.9 35.9,72.4 36.1,73.2 36.1,73.9 36.6,73.8 37.2,74.2 37.4,74.8 37.2,75.3 38.7,76.4 40.2,77.1 40.3,77.8    41,78.7 41.9,78.8 42.3,79.2 42.6,80 43.2,80.4 44.6,80.3 45.1,79.8 44.8,80.6 45.6,81.5 47.1,82.3 47.8,82.9 47.9,83.6 48.7,84.1    49.8,84.5 50.2,84.4 51,84.6 52.8,85.7 54.1,86.2 55,86.2 55.4,86.5 55.7,87.1 57,88 57.7,88.5 58.7,89.4 59.3,89.7 59.6,90.3    59.6,90.8 59.6,91.5 60.7,91.7 61.7,92.1 63,93.5 64.2,94.6 65.1,94.8 65.2,95 66.4,94.4 67.4,93.8 68,93.9 69,93.3 69.3,92.5    68.5,91.7 68.8,90.9 69.2,90.1 69.9,90.3 69.8,89.7 69.2,89.6 68.8,89.1 69.5,87.6 70.6,86.9 71.5,85.6 71.6,84.5 70.3,81.4    70.7,80.6 70.6,79.4 70.3,78.8 70.1,77.8 70.7,77.2 71,75.5 70.9,72.5 70.5,71.2 71,69.7 71,66.4 71.8,65.1 71.8,64.4  "/>
  </g>
</svg>